<svg width="851" height="843" viewBox="0 0 851 843" fill="none" xmlns="http://www.w3.org/2000/svg">
<path d="M247.338 549.931L109.657 545.119" stroke="white" stroke-width="2" stroke-miterlimit="10" stroke-linecap="square"/>
<path d="M98.1094 557.77L198.238 606.177" stroke="white" stroke-width="2" stroke-miterlimit="10" stroke-linecap="square"/>
<path d="M451.443 369.673L259.304 334.902" stroke="white" stroke-width="2" stroke-miterlimit="10" stroke-linecap="square"/>
<path d="M248.182 336.303L372 455.686" stroke="white" stroke-width="2" stroke-miterlimit="10" stroke-linecap="square"/>
<path d="M623.26 204.967L497.631 184.837" stroke="white" stroke-width="2" stroke-miterlimit="10" stroke-linecap="square"/>
<path d="M492.07 187.353L545.666 278.17" stroke="white" stroke-width="2" stroke-miterlimit="10" stroke-linecap="square"/>
<path d="M782.145 98.8235L754.433 267.189" stroke="white" stroke-width="2" stroke-miterlimit="10" stroke-linecap="square"/>
<path d="M747.831 277.338L662.058 199.477" stroke="white" stroke-width="2" stroke-miterlimit="10" stroke-linecap="square"/>
<path d="M551.693 467.562L488.394 373.333" stroke="white" stroke-width="2" stroke-miterlimit="10" stroke-linecap="square"/>
<path d="M549.36 312.941L554.903 453.856" stroke="white" stroke-width="2" stroke-miterlimit="10" stroke-linecap="square"/>
<path d="M432.02 653.018L296.253 569.15" stroke="white" stroke-width="2" stroke-miterlimit="10" stroke-linecap="square"/>
<path d="M384.934 477.647L429.273 642.353" stroke="white" stroke-width="2" stroke-miterlimit="10" stroke-linecap="square"/>
<path d="M203.186 652.214L202.031 741.177" stroke="white" stroke-width="2" stroke-miterlimit="10" stroke-linecap="square"/>
<path d="M198.337 753.987L82.5957 770.51" stroke="white" stroke-width="2" stroke-miterlimit="10" stroke-linecap="square"/>
<path d="M0.742584 838.224C0.270535 838.689 0.00326445 839.323 0.000138666 839.986C-0.00302028 840.649 0.258223 841.287 0.725828 841.759C1.19343 842.231 1.82893 842.499 2.49195 842.502C3.155 842.505 3.79126 842.244 4.26132 841.776C4.26132 841.776 4.26132 841.776 4.26132 841.776C18.3653 827.747 32.4693 813.717 46.5734 799.687C300.446 547.154 554.318 294.622 808.19 42.0888C822.294 28.0593 836.398 14.0297 850.502 0C850.502 0 850.502 0 850.502 0C836.339 13.9705 822.177 27.9409 808.014 41.9112C553.086 293.378 298.158 544.845 43.2306 796.313C29.0679 810.283 14.9052 824.253 0.742584 838.224Z" fill="#D126B1"/>
</svg>
