<svg width="86" height="80" viewBox="0 0 86 80" fill="none" xmlns="http://www.w3.org/2000/svg">
<g clip-path="url(#clip0_56_54)">
<path d="M39.2046 44.6323C42.2188 43.7632 45.6652 44.3628 48.1145 46.3704C51.5534 48.9623 52.9259 53.9185 51.3145 57.9184C49.8472 61.7475 45.8624 64.552 41.7221 64.3053C36.5619 64.4153 32.0159 59.7551 31.978 54.6433C31.7088 50.1729 34.8406 45.7404 39.2046 44.6323Z" fill="url(#paint0_radial_56_54)"/>
<path d="M28.3336 52.3361C29.835 46.5336 35.6511 42.0973 41.6985 42.602C38.6426 42.9208 35.5412 44.0403 33.4824 46.4121C30.4265 49.4974 29.5469 54.4043 31.09 58.4232C32.8265 62.943 37.5886 66.1687 42.4492 65.8764C47.363 65.7626 51.981 62.1119 53.1222 57.3112C53.4862 55.5807 53.7706 53.7516 53.3042 52.0135C53.0843 51.0837 52.7317 50.1881 52.5725 49.2432C54.2293 52.3968 54.7639 56.2297 53.6151 59.6451C52.0947 64.8215 47.109 68.7151 41.7175 68.9048C37.1488 69.1553 32.4701 66.848 30.0436 62.9354C27.9886 59.8615 27.3819 55.8995 28.3336 52.3361Z" fill="#0080A8"/>
<path d="M46.8398 42.8675C49.0351 42.822 50.9574 43.987 52.7318 45.1369C56.4398 47.615 58.4759 52.1462 58.3318 56.5521C58.2749 60.4875 57.4029 64.5405 55.2645 67.8876C53.5507 70.7528 50.6313 72.7679 47.4465 73.6635C43.4313 74.7603 39.1962 74.358 35.1507 73.6483C29.0086 72.138 23.3062 69.0868 17.0161 68.1305C12.9934 67.751 8.82278 68.0242 5.06543 69.6105C7.42372 67.2235 10.7868 66.085 14.0436 65.622C18.5062 64.9997 23.0294 66.0319 27.1507 67.7244C32.8455 69.8951 38.9839 71.8192 45.1413 70.7832C47.9583 70.2443 50.7071 68.9085 52.5233 66.6277C55.837 62.6202 57.2474 56.8595 55.4654 51.8805C54.1233 47.8389 51.1318 43.9491 46.8398 42.8675Z" fill="#EAEBED"/>
<path d="M62.3695 72.9804C67.1582 70.3657 71.1695 66.6011 75.0368 62.8062C74.9079 63.2312 74.7525 63.641 74.5629 64.0433C71.0406 70.2556 65.8842 75.9139 59.0634 78.4527C51.833 80.8739 43.9885 80.3692 36.6672 78.6273C32.6065 77.5002 28.5345 76.2327 24.834 74.1834C31.1316 75.4433 37.5089 76.5704 43.9582 76.5325C50.2179 76.6046 56.8074 76.1264 62.3695 72.9804Z" fill="#0080A8"/>
<path d="M40.2403 0.465481C43.3 -0.619875 46.8185 0.252964 49.1578 2.45783C50.5076 3.528 51.2962 5.14465 52.6042 6.2338C55.2659 5.35337 58.1094 4.96629 60.9 5.38753C63.5881 5.60764 66.0715 7.31536 67.2924 9.71756C68.4109 11.6074 68.6346 13.8237 69.1578 15.9147C72.5929 15.835 76.608 16.1007 78.9815 18.9469C80.972 21.1517 80.881 24.3433 80.445 27.0946C80.3313 28.6771 79.5881 30.1268 79.3948 31.6865C81.4308 33.14 83.9028 34.4948 84.6459 37.0905C85.7076 39.9178 84.6459 43.0145 82.9322 45.3408C79.5123 50.4412 74.117 53.6289 69.1123 56.9533C67.9976 57.5795 66.9929 58.6724 65.6128 58.5434C70.2497 55.1469 75.3076 52.035 78.6441 47.223C80.2403 45.003 81.3512 42.1264 80.5891 39.3903C79.8611 37.1475 78.0071 35.5005 76.0469 34.3202C75.5237 34.0128 75.8118 33.3032 75.9066 32.8478C76.6308 30.2672 77.2753 27.5386 76.7559 24.8556C76.2554 22.2181 74.0905 19.9563 71.4403 19.4516C69.8099 19.1746 68.1568 19.1366 66.5189 18.9583C65.8327 15.6453 65.1123 11.6188 61.8213 9.88454C58.936 8.49939 55.4668 8.57908 52.4981 9.67203C51.8459 10.0022 51.1938 9.72895 50.8412 9.13314C49.2829 7.10285 47.4858 5.06116 44.991 4.21109C43.0649 3.49005 40.9341 4.01376 39.2014 4.99665C37.1805 6.05165 35.4971 7.64173 34.0943 9.42156C33.8478 9.77069 33.427 10.2147 32.9568 9.94147C30.6099 9.01171 28.2592 7.56962 25.6279 7.92635C23.2279 8.28687 21.3815 10.1768 20.3843 12.3019C19.4289 14.0628 18.9853 16.0286 18.6706 17.9906C18.5568 18.9697 17.3246 18.9241 16.5929 19.0911C13.8554 19.4478 10.8526 20.5028 9.5104 23.1137C7.69429 26.5444 8.83552 30.5632 9.98054 34.0204C7.6412 35.4663 4.95684 37.0905 4.33504 40.0051C3.69429 43.3484 5.81751 46.3199 7.90661 48.6879C10.6971 51.7542 14.1208 54.164 17.5862 56.403C18.682 57.0861 19.7967 57.7578 20.7483 58.642C20.3237 58.5662 19.9104 58.4409 19.5161 58.2702C13.7568 55.2 8.18718 51.5872 3.66775 46.8284C1.59002 44.5856 -0.298132 41.709 0.0393083 38.5098C0.126512 36.5858 1.61277 35.1589 3.05353 34.0774C4.0431 33.1779 5.44974 32.696 6.2194 31.5992C5.28291 28.5519 4.36917 25.3224 5.10851 22.1157C5.63173 19.9487 7.22415 18.1386 9.21846 17.1898C11.2128 16.131 13.5028 15.9754 15.6791 15.5504C16.4526 13.2013 16.8166 10.6891 18.0412 8.51077C19.2696 6.48427 21.1426 4.62095 23.5767 4.24905C26.5796 3.69878 29.4422 5.12947 32.0507 6.43114C34.5948 4.22248 36.9531 1.55463 40.2403 0.465481Z" fill="#0080A8"/>
<path d="M33.04 12.3399C33.8817 11.9756 34.7424 11.6264 35.6675 11.5543C37.768 16.2183 38.5528 21.3187 39.4211 26.3167C40.0656 31.0566 40.7708 35.9293 39.9746 40.6843C39.6524 38.969 39.7358 37.2158 39.5045 35.4929C38.7955 27.4438 36.0998 19.759 33.04 12.3399Z" fill="#0080A8"/>
<path d="M50.5496 12.0628C51.3003 11.5126 52.1913 12.393 52.9723 12.5372C52.7373 14.1804 51.9752 15.6718 51.3534 17.1898C50.1098 20.2409 48.9041 23.3111 47.8918 26.4457C46.7543 30.3013 46.0757 34.2709 45.3629 38.2214C45.1657 39.1626 45.143 40.1758 44.5932 40.9993C44.4643 40.1758 44.4226 39.3409 44.4567 38.5098C45.196 29.4551 47.4633 20.5863 50.5496 12.0628Z" fill="#0080A8"/>
<path d="M18.5908 21.8349C19.1899 21.2163 19.7851 20.5977 20.3842 19.9753C21.988 21.4212 23.4098 23.0531 24.6193 24.8367C25.9804 26.8442 28.5017 30.9845 30.3027 33.9787C31.8875 36.6124 33.1538 39.4245 34.079 42.3542C34.1813 42.6767 34.242 42.8703 34.242 42.8703C30.4657 34.9236 25.2448 27.626 18.5908 21.8311V21.8349Z" fill="#0080A8"/>
<path d="M63.6271 21.053C63.9304 20.6735 64.2717 20.3281 64.6167 19.979C65.3067 20.5407 65.9816 21.1327 66.6034 21.7778C60.7456 28.0205 55.1645 34.84 52.2451 43.0068C52.2792 40.8171 53.2385 38.8095 53.9551 36.783C56.2527 31.0299 59.8622 25.9295 63.6271 21.053Z" fill="#0080A8"/>
<path d="M10.2607 36.0127C10.3328 35.0639 11.3375 34.4416 11.8721 33.7015C17.6086 38.9841 22.8674 44.7942 27.5309 51.0483C23.2655 47.2116 19.2351 43.113 14.7385 39.5344C13.2939 38.2972 11.7091 37.2384 10.2607 36.0127Z" fill="#0080A8"/>
<path d="M58.3184 53.6972C61.7762 46.0808 67.2018 39.5003 73.4918 34.0508C74.0454 34.6656 74.5724 35.3069 75.088 35.9596C71.8577 38.9463 68.4568 41.7545 65.325 44.8474C62.652 47.5228 60.616 50.722 58.3184 53.6972Z" fill="#0080A8"/>
</g>
<defs>
<radialGradient id="paint0_radial_56_54" cx="0" cy="0" r="1" gradientTransform="matrix(-5.47829 6.83881 -11.2737 -9.04748 43.9818 48.9547)" gradientUnits="userSpaceOnUse">
<stop stop-color="white"/>
<stop offset="0.254818" stop-color="white"/>
<stop offset="0.399051" stop-color="#E2E2E2"/>
<stop offset="0.51" stop-color="#DBDBDB"/>
</radialGradient>
<clipPath id="clip0_56_54">
<rect width="85.308" height="80" fill="white"/>
</clipPath>
</defs>
</svg>
