<svg width="747" height="350" viewBox="0 0 747 350" fill="none" xmlns="http://www.w3.org/2000/svg">
<g opacity="0.03" clip-path="url(#clip0_73_353)">
<path d="M343.295 40.5334C369.689 32.9292 399.868 38.1758 421.315 55.7417C451.428 78.4213 463.446 121.788 449.336 156.787C436.488 190.292 401.595 214.831 365.34 212.673C320.155 213.636 280.348 172.859 280.016 128.13C277.659 89.0139 305.082 50.2295 343.295 40.5334Z" fill="url(#paint0_radial_73_353)"/>
<path d="M248.103 107.942C261.251 57.1701 312.18 18.3525 365.134 22.7689C338.374 25.5582 311.217 35.3539 293.189 56.1075C266.43 83.1039 258.728 126.039 272.24 161.204C287.446 200.752 329.145 228.977 371.707 226.42C414.735 225.424 455.172 193.48 465.165 151.475C468.353 136.333 470.843 120.328 466.759 105.119C464.833 96.9839 461.746 89.1474 460.351 80.8791C474.86 108.473 479.541 142.011 469.481 171.896C456.168 217.189 412.51 251.258 365.3 252.919C325.294 255.11 284.325 234.921 263.077 200.686C245.082 173.789 239.77 139.122 248.103 107.942Z" fill="white"/>
<path d="M410.153 25.0929C429.376 24.6944 446.209 34.8886 461.746 44.95C494.216 66.6334 512.044 106.281 510.783 144.833C510.285 179.268 502.649 214.732 483.924 244.019C468.918 269.09 443.354 286.722 415.466 294.558C380.307 304.155 343.222 300.635 307.798 294.426C254.014 281.21 204.081 254.512 149.002 246.144C113.777 242.824 77.2567 245.214 44.3555 259.094C65.0059 238.208 94.4543 228.246 122.973 224.195C162.05 218.749 201.657 227.781 237.746 242.591C287.612 261.585 341.363 278.42 395.28 269.355C419.948 264.64 444.018 252.951 459.92 232.995C488.937 197.929 501.288 147.523 485.684 103.957C473.931 68.5925 447.736 34.5565 410.153 25.0929Z" fill="white"/>
<path d="M546.138 288.581C588.07 265.702 623.196 232.762 657.06 199.556C655.931 203.275 654.57 206.861 652.91 210.381C622.067 264.739 576.915 314.249 517.188 336.464C453.875 357.649 385.185 353.233 321.075 337.991C285.518 328.129 249.861 317.038 217.458 299.107C272.603 310.132 328.446 319.994 384.919 319.662C439.732 320.293 497.434 316.109 546.138 288.581Z" fill="white"/>
</g>
<defs>
<radialGradient id="paint0_radial_73_353" cx="0" cy="0" r="1" gradientTransform="matrix(-47.9707 59.8397 -98.7181 -79.1656 385.127 78.355)" gradientUnits="userSpaceOnUse">
<stop stop-color="white"/>
<stop offset="0.254818" stop-color="white"/>
<stop offset="0.399051" stop-color="#E2E2E2"/>
<stop offset="0.51" stop-color="#DBDBDB"/>
</radialGradient>
<clipPath id="clip0_73_353">
<rect width="747" height="350" fill="white"/>
</clipPath>
</defs>
</svg>
